# xmcd CD database file
#
# Track frame offsets:
#	182
#	10675
#	23772
#	53715
#	64780
#	77620
#	88650
#	99177
#	110425
#	123897
#	134930
#	146860
#
# Disc length: 2638 seconds
#
# Revision: 0
# Processed by: cddbd v1.5.1PL0 Copyright (c) Steve Scherf et al.
# Submitted via: CDex 1.51
#
DISCID=9a0a4c0c
DTITLE=Tony Scott - The Complete Tony Scott
DYEAR=1956
DGENRE=Jazz
TTITLE0=I Found a Million Dollar Baby
TTITLE1=Moonlight Cocktail
TTITLE2=Finger Poppin' Blues
TTITLE3=Under a Blanket of Blue
TTITLE4=Skylark
TTITLE5=I'll Remember April
TTITLE6=The Lady is a Tramp
TTITLE7=A Blues Serenade
TTITLE8=Walkin'
TTITLE9=I Surrender Dear
TTITLE10=Just One of Those Things
TTITLE11=Time To Go
EXTD=YEAR: 1956
EXTT0=
EXTT1=
EXTT2=
EXTT3=
EXTT4=
EXTT5=
EXTT6=
EXTT7=
EXTT8=
EXTT9=
EXTT10=
EXTT11=
PLAYORDER=
